<?xml version="1.0" encoding="utf-8"?>
<!-- Generator: Adobe Illustrator 21.0.0, SVG Export Plug-In . SVG Version: 6.00 Build 0)  -->
<svg version="1.1" id="Calque_1" xmlns="http://www.w3.org/2000/svg" xmlns:xlink="http://www.w3.org/1999/xlink" x="0px" y="0px"
	 viewBox="0 0 1000 1000" style="enable-background:new 0 0 1000 1000;" xml:space="preserve">
<style type="text/css">
	.st0{fill:#364548;}
	.st1{fill:#22A0C8;}
	.st2{fill:#37B1D9;}
	.st3{fill:#1B81A5;}
	.st4{fill:#1D91B4;}
	.st5{fill:#23A3C2;}
	.st6{fill:#34BBDE;}
	.st7{fill:#D3ECEC;}
	.st8{fill:#BDD9D7;}
</style>
<path class="st0" d="M573.9,402.3H658v86h42.6c19.7,0,39.9-3.5,58.5-9.8c9.1-3.1,19.4-7.4,28.4-12.8c-11.9-15.5-17.9-35.1-19.7-54.4
	c-2.4-26.3,2.9-60.4,20.6-81l8.8-10.2l10.5,8.5c26.5,21.3,48.9,51.1,52.8,85.1c32-9.4,69.5-7.2,97.7,9.1l11.6,6.7l-6.1,11.9
	c-23.8,46.5-73.6,60.9-122.3,58.3C768.5,681.1,609.9,767,417.5,767c-99.4,0-190.5-37.1-242.5-125.3l-0.9-1.4l-7.6-15.4
	c-17.5-38.8-23.4-81.3-19.4-123.8l1.2-12.7h72v-86h84.2v-84.2h168.3V234h101V402.3"/>
<path class="st1" d="M846.5,434.1c5.6-43.9-27.2-78.3-47.5-94.7c-23.5,27.1-27.1,98.2,9.7,128.1c-20.5,18.2-63.8,34.8-108.1,34.8
	H161.2c-4.3,46.3,3.8,88.9,22.4,125.3l6.1,11.2c3.9,6.6,8.1,13,12.7,19.1c22.2,1.4,42.6,1.9,61.3,1.5h0c36.8-0.8,66.8-5.2,89.5-13
	c3.4-1.1,7.1,0.8,8.1,4.3c1,3.3-0.7,6.8-3.9,8c-3,1.1-6.2,2-9.4,3h0c-17.9,5.1-37.1,8.6-61.9,10.1c1.5,0-1.5,0.2-1.5,0.2
	c-0.8,0.1-1.9,0.2-2.7,0.2c-9.7,0.5-20.3,0.7-31,0.7c-11.8,0-23.3-0.2-36.3-0.9l-0.3,0.2c44.9,50.5,115.2,80.8,203.3,80.8
	c186.4,0,344.5-82.6,414.6-268.2c49.7,5.1,97.4-7.6,119.1-50C916.6,414.9,872.1,421.2,846.5,434.1"/>
<path class="st2" d="M846.5,434.1c5.6-43.9-27.2-78.3-47.5-94.7c-23.5,27.1-27.1,98.2,9.7,128.1c-20.5,18.2-63.8,34.8-108.1,34.8
	H193.1c-2.2,70.8,24.1,124.6,70.6,157.1h0c36.8-0.8,66.8-5.2,89.5-13c3.4-1.1,7.1,0.8,8.1,4.3c1,3.3-0.7,6.8-3.9,8
	c-3,1.1-6.2,2-9.4,3h0c-17.9,5.1-38.7,9-63.5,10.5c0,0-0.6-0.6-0.6-0.6c63.4,32.5,155.4,32.4,260.9-8.1
	c118.3-45.4,228.3-132,305.1-231C848.7,433,847.6,433.6,846.5,434.1"/>
<path class="st3" d="M162.2,558.5c3.3,24.8,10.6,48,21.3,69.1l6.1,11.2c3.9,6.6,8.1,13,12.7,19.1c22.2,1.4,42.6,1.9,61.3,1.5
	c36.8-0.8,66.8-5.2,89.5-13c3.4-1.1,7.1,0.8,8.1,4.3c1,3.3-0.7,6.8-3.9,8c-3,1.1-6.2,2-9.4,3h0c-17.9,5.1-38.6,8.8-63.4,10.3
	c-0.9,0.1-2.3,0.1-3.2,0.1c-9.7,0.5-20.2,0.9-30.9,0.9c-11.8,0-23.8-0.2-36.7-0.9c44.9,50.5,115.6,80.9,203.7,80.9
	c159.6,0,298.4-60.6,379-194.4H162.2"/>
<path class="st4" d="M198,558.5c9.5,43.5,32.5,77.7,65.8,100.9c36.8-0.8,66.8-5.2,89.5-13c3.4-1.1,7.1,0.8,8.1,4.3
	c1,3.3-0.7,6.8-3.9,8c-3,1.1-6.2,2-9.4,3h0c-17.9,5.1-39.1,8.8-63.8,10.3c63.4,32.5,155.2,32.1,260.6-8.4
	c63.8-24.5,125.2-61,180.3-105H198"/>
<path class="st5" d="M234.4,416.3h72.9v72.9h-72.9V416.3z M240.5,422.4h5.8v60.8h-5.8V422.4z M251.3,422.4h6v60.8h-6L251.3,422.4
	L251.3,422.4z M262.3,422.4h6v60.8h-6V422.4z M273.4,422.4h6v60.8h-6V422.4z M284.5,422.4h6v60.8h-6L284.5,422.4L284.5,422.4z
	 M295.5,422.4h5.8v60.8h-5.8V422.4z M318.6,332.2h72.9v72.9h-73L318.6,332.2L318.6,332.2z M324.6,338.2h5.8V399h-5.8V338.2z
	 M335.5,338.2h6V399h-6L335.5,338.2L335.5,338.2z M346.5,338.2h6V399h-6V338.2z M357.6,338.2h6V399h-6V338.2z M368.6,338.2h6V399h-6
	V338.2z M379.7,338.2h5.8V399h-5.8V338.2z"/>
<path class="st6" d="M318.6,416.3h72.9v72.9h-73L318.6,416.3L318.6,416.3z M324.6,422.4h5.8v60.8h-5.8V422.4z M335.5,422.4h6v60.8
	h-6L335.5,422.4L335.5,422.4z M346.5,422.4h6v60.8h-6V422.4z M357.6,422.4h6v60.8h-6V422.4z M368.6,422.4h6v60.8h-6V422.4z
	 M379.7,422.4h5.8v60.8h-5.8V422.4z"/>
<path class="st5" d="M402.7,416.3h72.9v72.9h-72.9V416.3z M408.8,422.4h5.8v60.8h-5.8V422.4z M419.6,422.4h6v60.8h-6V422.4z
	 M430.7,422.4h6v60.8h-6V422.4z M441.7,422.4h6v60.8h-6V422.4z M452.8,422.4h6v60.8h-6V422.4z M463.8,422.4h5.8v60.8h-5.8V422.4z"/>
<path class="st6" d="M402.7,332.2h72.9v72.9h-72.9V332.2z M408.8,338.2h5.8V399h-5.8V338.2z M419.6,338.2h6V399h-6V338.2z
	 M430.7,338.2h6V399h-6V338.2z M441.7,338.2h6V399h-6V338.2z M452.8,338.2h6V399h-6V338.2z M463.8,338.2h5.8V399h-5.8V338.2z
	 M486.9,416.3h72.9v72.9h-72.9V416.3z M493,422.4h5.8v60.8H493V422.4z M503.8,422.4h6v60.8h-6V422.4z M514.8,422.4h6v60.8h-6V422.4z
	 M525.9,422.4h6v60.8h-6V422.4z M536.9,422.4h6v60.8h-6V422.4z M548,422.4h5.8v60.8H548V422.4z"/>
<path class="st5" d="M486.9,332.2h72.9v72.9h-72.9V332.2z M493,338.2h5.8V399H493V338.2z M503.8,338.2h6V399h-6V338.2z M514.8,338.2
	h6V399h-6V338.2z M525.9,338.2h6V399h-6V338.2z M536.9,338.2h6V399h-6V338.2z M548,338.2h5.8V399H548V338.2z"/>
<path class="st6" d="M486.9,248h72.9v73h-72.9V248z M493,254.1h5.8v60.8H493V254.1L493,254.1z M503.8,254.1h6v60.8h-6V254.1
	L503.8,254.1z M514.8,254.1h6v60.8h-6V254.1L514.8,254.1z M525.9,254.1h6v60.8h-6V254.1L525.9,254.1z M536.9,254.1h6v60.8h-6V254.1
	L536.9,254.1z M548,254.1h5.8v60.8H548V254.1L548,254.1z"/>
<path class="st5" d="M571,416.3H644v72.9H571V416.3z M577.1,422.4h5.8v60.8h-5.8L577.1,422.4L577.1,422.4z M587.9,422.4h6v60.8h-6
	L587.9,422.4L587.9,422.4z M599,422.4h6v60.8h-6V422.4z M610,422.4h6v60.8h-6V422.4z M621.1,422.4h6v60.8h-6V422.4z M632.2,422.4
	h5.8v60.8h-5.8V422.4z"/>
<path class="st7" d="M386.9,607.5c11.1-0.1,20.2,8.7,20.4,19.9c0.1,11.1-8.7,20.2-19.9,20.4c-0.2,0-0.4,0-0.5,0
	c-11.1-0.2-20-9.3-19.9-20.4C367.2,616.5,376,607.7,386.9,607.5"/>
<path class="st0" d="M386.9,613.2c1.8,0,3.6,0.3,5.2,1c-2.8,1.6-3.8,5.2-2.1,8c1,1.8,3,2.9,5.1,2.9c2.2,0,4.2-1.2,5.2-3.1
	c3.1,7.4-0.4,15.8-7.8,18.8s-15.8-0.4-18.8-7.8c-3.1-7.4,0.4-15.8,7.8-18.8C383.2,613.6,385,613.2,386.9,613.2 M31,565.8h936.1
	c-20.4-5.2-64.5-12.2-57.2-38.9c-37.1,42.9-126.4,30.1-149,8.9c-25.1,36.4-171.4,22.6-181.5-5.8c-31.5,37-129.1,37-160.6,0
	c-10.2,28.4-156.4,42.2-181.6,5.8c-22.6,21.1-111.9,33.9-149-8.9C95.5,553.7,51.4,560.7,31,565.8"/>
<path class="st8" d="M440.4,752.5c-49.8-23.6-77.2-55.8-92.4-90.9c-18.5,5.3-40.8,8.7-66.6,10.1c-9.7,0.5-20,0.8-30.7,0.8
	c-12.4,0-25.5-0.4-39.2-1.1c45.7,45.7,101.9,80.8,206,81.5C425.2,753,432.8,752.8,440.4,752.5"/>
<path class="st7" d="M366.5,694c-6.9-9.4-13.6-21.1-18.5-32.4c-18.5,5.3-40.8,8.7-66.6,10.1C299.2,681.4,324.6,690.3,366.5,694"/>
</svg>
