<?xml version="1.0" encoding="UTF-8" standalone="no"?>
<svg
   xmlns:dc="http://purl.org/dc/elements/1.1/"
   xmlns:cc="http://creativecommons.org/ns#"
   xmlns:rdf="http://www.w3.org/1999/02/22-rdf-syntax-ns#"
   xmlns:svg="http://www.w3.org/2000/svg"
   xmlns="http://www.w3.org/2000/svg"
   xmlns:xlink="http://www.w3.org/1999/xlink"
   xmlns:sodipodi="http://sodipodi.sourceforge.net/DTD/sodipodi-0.dtd"
   xmlns:inkscape="http://www.inkscape.org/namespaces/inkscape"
   viewBox="0 0 163.23306 124.92938"
   version="1.1"
   id="svg18"
   sodipodi:docname="nginx-logo.svg"
   width="163.23306"
   height="124.92938"
   inkscape:version="0.92.2 (5c3e80d, 2017-08-06)">
  <metadata
     id="metadata24">
    <rdf:RDF>
      <cc:Work
         rdf:about="">
        <dc:format>image/svg+xml</dc:format>
        <dc:type
           rdf:resource="http://purl.org/dc/dcmitype/StillImage" />
        <dc:title></dc:title>
      </cc:Work>
    </rdf:RDF>
  </metadata>
  <defs
     id="defs22">
    <rect
       id="SVGID_1_"
       x="-745.5"
       y="-514"
       width="1400"
       height="1060" />
  </defs>
  <sodipodi:namedview
     pagecolor="#ffffff"
     bordercolor="#666666"
     borderopacity="1"
     objecttolerance="10"
     gridtolerance="10"
     guidetolerance="10"
     inkscape:pageopacity="0"
     inkscape:pageshadow="2"
     inkscape:window-width="1600"
     inkscape:window-height="837"
     id="namedview20"
     showgrid="false"
     fit-margin-top="0"
     fit-margin-left="0"
     fit-margin-right="0"
     fit-margin-bottom="0"
     inkscape:zoom="2.4930778"
     inkscape:cx="58.455479"
     inkscape:cy="42.596379"
     inkscape:window-x="-8"
     inkscape:window-y="-8"
     inkscape:window-maximized="1"
     inkscape:current-layer="svg18" />
  <g
     transform="translate(11.547495,61.267321)"
     id="g16">
    <path
       id="a"
       d="M 14.047838,32.727592 V 13.662897 L 33.110337,32.727592 V 13.662897"
       inkscape:connector-curvature="0"
       style="fill:none;stroke:#009900;stroke-width:5;stroke-linecap:round;stroke-linejoin:round"
       inkscape:export-filename="C:\Users\suitedoalex\sites\nginx-logo-14.png"
       inkscape:export-xdpi="41.70285"
       inkscape:export-ydpi="41.70285" />
    <path
       d="M 44.6875,11.1875 44,12.46875 38.6875,22.125 38,23.34375 38.6875,24.5625 44,33.90625 44.71875,35.1875 h 1.46875 10.875 1.5625 l 0.6875,-1.40625 3.96875,-8 1.78125,-3.625 H 61.03125 L 50.875,22.1875 c -1.320782,-0.01868 -2.535605,1.179086 -2.535605,2.5 0,1.320914 1.214823,2.518679 2.535605,2.5 L 57,27.15625 55.5,30.1875 h -7.875 l -3.90625,-6.875 3.9375,-7.125 h 8.377221 l 1.953125,4.007812 h 5.03125 L 59.845971,12.59375 59.158471,11.1875 H 57.595971 46.1875 Z"
       id="path3"
       inkscape:connector-curvature="0"
       style="fill:#009900"
       inkscape:export-filename="C:\Users\suitedoalex\sites\nginx-logo-14.png"
       inkscape:export-xdpi="41.70285"
       inkscape:export-ydpi="41.70285" />
    <path
       d="m 70.013782,11.15625 c -1.308989,0.01639 -2.485084,1.222261 -2.46875,2.53125 v 6.514509 h 5 V 13.6875 c 0.01659,-1.329821 -1.201429,-2.547843 -2.53125,-2.53125 z"
       id="path5"
       inkscape:connector-curvature="0"
       style="fill:#009900"
       inkscape:export-filename="C:\Users\suitedoalex\sites\nginx-logo-14.png"
       inkscape:export-xdpi="41.70285"
       inkscape:export-ydpi="41.70285" />
    <use
       height="1052.3622"
       transform="matrix(-1,0,0,1,111.13905,0.04841623)"
       width="744.09448"
       xlink:href="#a"
       id="use7"
       x="0"
       y="0"
       inkscape:export-filename="C:\Users\suitedoalex\sites\nginx-logo-14.png"
       inkscape:export-xdpi="41.70285"
       inkscape:export-ydpi="41.70285" />
    <g
       transform="translate(0.10586251,0.33010228)"
       id="g12"
       inkscape:export-filename="C:\Users\suitedoalex\sites\nginx-logo-14.png"
       inkscape:export-xdpi="41.70285"
       inkscape:export-ydpi="41.70285">
      <path
         id="b"
         d="m 104.90935,13.374209 19.08481,19.017856"
         inkscape:connector-curvature="0"
         style="fill:none;stroke:#009900;stroke-width:5;stroke-linecap:round;stroke-linejoin:round" />
      <use
         height="1052.3622"
         transform="matrix(-1,0,0,1,228.92583,0)"
         width="744.09448"
         xlink:href="#b"
         id="use10"
         x="0"
         y="0" />
    </g>
    <path
       d="m 70.013782,35.204069 c -1.308989,-0.01639 -2.485084,-1.222261 -2.46875,-2.53125 V 22.208456 h 5 v 10.464363 c 0.01659,1.329821 -1.201429,2.547843 -2.53125,2.53125 z"
       id="path14"
       inkscape:connector-curvature="0"
       style="fill:#009900"
       inkscape:export-filename="C:\Users\suitedoalex\sites\nginx-logo-14.png"
       inkscape:export-xdpi="41.70285"
       inkscape:export-ydpi="41.70285" />
    <text
       xml:space="preserve"
       style="font-style:normal;font-weight:normal;font-size:48px;line-height:1.25;font-family:sans-serif;letter-spacing:0px;word-spacing:0px;fill:#000000;fill-opacity:1;stroke:none"
       x="-13.306609"
       y="59.779247"
       id="text858"><tspan
         sodipodi:role="line"
         id="tspan856"
         x="-13.306609"
         y="59.779247"
         style="font-size:18.66666603px">logodownload.org</tspan></text>
  </g>
  <g
     id="g8"
     transform="matrix(2,0,0,2,99.41303,-288)"
     style="stroke:none;stroke-opacity:1">
    <defs
       id="defs3">
      <rect
         id="rect847"
         x="-745.5"
         y="-514"
         width="1400"
         height="1060" />
    </defs>
    <clipPath
       id="SVGID_2_">
      <use
         xlink:href="#SVGID_1_"
         overflow="visible"
         id="use5"
         style="overflow:visible"
         x="0"
         y="0"
         width="100%"
         height="100%" />
    </clipPath>
  </g>
  <g
     id="g14"
     transform="matrix(0.592024,0,0,0.592024,37.02809,-27.748919)"
     style="stroke:none;stroke-opacity:1"
     inkscape:export-filename="C:\Users\suitedoalex\sites\nginx-logo-15.png"
     inkscape:export-xdpi="86.069847"
     inkscape:export-ydpi="86.069847">
    <path
       d="m -7.6,101 c 0,-8.6 0,-17.2 0,-25.8 0,-1 0.4,-1.7 1.3,-2.2 14.9,-8.6 29.7,-17.1 44.5,-25.7 0.8,-0.5 1.7,-0.6 2.5,-0.1 14.9,8.6 29.8,17.2 44.7,25.8 0.8,0.5 1.2,1.2 1.2,2.2 0,17.2 0,34.3 0,51.5 0,1 -0.4,1.7 -1.2,2.2 -12.8,7.4 -25.6,14.8 -38.4,22.2 -2,1.2 -4.1,2.4 -6.1,3.5 -0.9,0.5 -1.8,0.5 -2.7,0 C 27,148.2 15.9,141.7 4.7,135.3 1,133.2 -2.7,131 -6.4,128.9 c -0.8,-0.5 -1.2,-1.1 -1.2,-2.1 0,-8.6 0,-17.2 0,-25.8 z"
       id="path10"
       inkscape:connector-curvature="0"
       style="fill:#009900;fill-opacity:1;stroke:none;stroke-opacity:1" />
    <path
       d="m 23.9,91.4 c 0,0.1 0,0.3 0,0.4 0,9.9 0,19.8 0,29.7 0,3.4 -2.7,6.4 -6.3,6.3 -2.2,-0.1 -3.9,-1 -5.1,-2.9 -0.6,-0.9 -0.8,-1.9 -0.8,-3 0,-13.9 0,-27.9 0,-41.8 0,-2.8 1.7,-4.8 3.9,-5.7 2.2,-0.9 4.4,-0.7 6.6,0 2.1,0.6 3.7,1.9 5.1,3.5 4.3,5.2 8.7,10.4 13,15.6 4.5,5.4 9.1,10.8 13.6,16.3 0.1,0.1 0.2,0.3 0.4,0.5 0,-0.2 0,-0.4 0,-0.5 0,-10 0,-19.9 0,-29.9 0,-3.2 2.2,-5.7 5.3,-6 3.9,-0.5 6.5,2.3 6.9,5.2 0,0.3 0,0.6 0,0.8 0,11.1 0,22.2 0,33.3 0,2.8 0,5.7 0,8.5 0,2.4 -1.1,4.1 -3.1,5.2 -1.5,0.8 -3.1,1 -4.8,0.9 -2.5,-0.2 -4.7,-1.1 -6.6,-2.8 -1,-0.9 -1.7,-2 -2.6,-3 -4.9,-5.9 -9.8,-11.7 -14.7,-17.6 -3.5,-4.2 -7.1,-8.5 -10.6,-12.7 0,-0.1 -0.1,-0.2 -0.2,-0.3 z"
       id="path12"
       inkscape:connector-curvature="0"
       style="fill:#fefefe;stroke:none;stroke-opacity:1" />
  </g>
</svg>
